<?xml version="1.0" encoding="utf-8" ?>
<svg xmlns="http://www.w3.org/2000/svg" xmlns:xlink="http://www.w3.org/1999/xlink" width="1024" height="576">
	<path fill="#FFFEFE" transform="scale(0.5625 0.5625)" d="M0 0L1818.44 0C1820.58 3.35778 1819.99 8.22266 1820 12.0828L1820 742.336L1820.01 943.951L1820 997.417C1819.99 1004.76 1820.98 1013.76 1819.75 1020.9C1819.56 1022.02 1819.05 1023.05 1818.44 1024L0 1024L0 0Z"/>
	<path transform="scale(0.5625 0.5625)" d="M859.799 734.429L878.998 734.615C887.263 735.097 901.191 734.586 908.168 738.984C913.199 741.762 923.841 745.878 925.613 751.712L926.715 752.256C941.128 758.412 951.548 778.105 957.036 792.042Q957.816 794.021 958.455 796.049L961.013 803.212C969.452 836.403 971.149 874.066 952.89 904.531C950.852 907.931 948.369 910.962 945.586 913.777C945.588 919.679 945.834 925.69 945.575 931.579L946.096 935.181C945.918 937.249 945.465 939.415 944.375 941.21C941.035 946.715 931.358 948.903 925.486 950.157C898.117 956.006 826.242 960.508 802.914 944.945C800.663 943.443 798.701 941.615 798.252 938.824C798.101 937.887 798.184 937.463 797.587 936.655C797.142 936.054 797.121 936.252 796.275 936.193C773.188 934.565 748.999 936.097 725.794 936.142C716.666 936.159 707.07 936.58 698.024 935.36C710.918 934.849 792.699 937.151 797.882 934.572L798.402 931.886C792.892 921.625 788.681 909.611 785.685 898.366C774.652 856.961 778.161 801.787 799.917 764.239L804.397 758.39C809.435 753.239 814.764 747.841 821.874 745.83C825.772 742.494 829.96 739.904 834.323 737.246C841.44 734.116 852.019 734.736 859.799 734.429Z"/>
	<path fill="#FC455B" transform="scale(0.5625 0.5625)" d="M862.811 810.451C866.768 810.339 873.481 809.168 876.851 811.42C878.635 813.776 878.163 816.516 878.084 819.332C873.936 819.329 867.839 820.446 864.255 818.162C862.41 815.461 862.852 813.676 862.811 810.451Z"/>
	<path fill="#FC455B" transform="scale(0.5625 0.5625)" d="M908.168 738.984C913.199 741.762 923.841 745.878 925.613 751.712C922.574 752.376 923.078 753.964 923.012 756.485C922.507 775.791 921.205 792.446 908.381 808.059Q908.636 773.52 908.168 738.984Z"/>
	<path fill="#FC455B" transform="scale(0.5625 0.5625)" d="M821.874 745.83C825.772 742.494 829.96 739.904 834.323 737.246L834.281 809.742C824.809 800.707 820.493 791.98 820.131 778.637C819.862 768.725 821.521 758.833 821.259 748.964L821.874 745.83Z"/>
	<path fill="#FC455B" transform="scale(0.5625 0.5625)" d="M816.386 784.739C817.709 787.086 818.056 790.436 818.863 793.014C821.789 802.363 826.46 808.611 834.345 814.332L833.919 864.394C833.903 875.231 834.648 886.439 833.584 897.197C831.506 897.577 829.665 896.296 827.745 895.466C821.453 892.585 816.206 888.423 812.399 882.601C798.793 861.797 811.561 808.463 816.386 784.739Z"/>
	<path fill="#FC455B" transform="scale(0.5625 0.5625)" d="M839.833 739.12C860.582 736.916 884.055 737.831 904.618 740.821Q905.03 775.914 904.548 811.007C899.484 813.655 894.43 815.383 888.893 816.701C888.218 816.838 887.542 816.984 886.857 817.059C884.454 817.32 884.037 817.546 882.16 815.963C881.719 812.904 881.558 809.85 881.39 806.767C875.058 806.498 866.014 804.435 860.695 808.32C858.477 810.935 859.016 814.531 859.033 817.763C851.548 816.72 844.975 814.999 838.014 812.122C837.986 789.907 837.256 767.423 838.027 745.236C838.117 742.67 837.915 740.922 839.833 739.12Z"/>
	<path fill="#FC455B" transform="scale(0.5625 0.5625)" d="M903.726 815.249C905.577 817.365 904.97 891.337 905.006 899.457C883.344 905.027 859.608 905.27 838.035 899.264C837.341 871.704 837.912 844.003 838.005 816.433C859.868 824.783 882.325 824.825 903.726 815.249Z"/>
	<path fill="#FC455B" transform="scale(0.5625 0.5625)" d="M926.715 752.256C941.128 758.412 951.548 778.105 957.036 792.042Q957.816 794.021 958.455 796.049L961.013 803.212C969.452 836.403 971.149 874.066 952.89 904.531C950.852 907.931 948.369 910.962 945.586 913.777C945.634 899.502 945.287 876.208 940.383 862.943C939.665 849.909 937.674 798.931 931.45 790.743C927.45 797.483 941.955 858.93 934.038 877.779C929.433 888.739 919.228 894.383 908.776 898.659L908.326 812.745Q909.042 812.089 909.719 811.392C925.712 795.176 926.827 773.654 926.715 752.256Z"/>
	<path fill="#76D3E7" transform="scale(0.5625 0.5625)" d="M804.397 758.39C809.435 753.239 814.764 747.841 821.874 745.83L821.259 748.964C816.847 760.165 818.453 768.696 815.982 779.431C815.419 781.874 812.836 782.39 812.169 785.428C807.207 808.035 797.035 858.185 805.931 878.672C810.761 889.796 820.824 897.263 831.921 901.457C855.912 910.526 892.045 910.448 915.543 899.799C925.953 895.081 934.414 887.361 938.418 876.481C940.08 871.964 940.3 867.696 940.383 862.943C945.287 876.208 945.634 899.502 945.586 913.777C945.588 919.679 945.834 925.69 945.575 931.579L946.096 935.181C945.918 937.249 945.465 939.415 944.375 941.21C941.035 946.715 931.358 948.903 925.486 950.157C898.117 956.006 826.242 960.508 802.914 944.945C800.663 943.443 798.701 941.615 798.252 938.824C798.101 937.887 798.184 937.463 797.587 936.655C797.142 936.054 797.121 936.252 796.275 936.193C773.188 934.565 748.999 936.097 725.794 936.142C716.666 936.159 707.07 936.58 698.024 935.36C710.918 934.849 792.699 937.151 797.882 934.572L798.402 931.886C792.892 921.625 788.681 909.611 785.685 898.366C774.652 856.961 778.161 801.787 799.917 764.239L804.397 758.39Z"/>
	<path transform="scale(0.5625 0.5625)" d="M358.379 500.696Q360.771 491.566 363.264 482.462C403.369 336.712 508.361 203.803 639.55 129.337Q645.949 125.694 652.436 122.208Q658.922 118.723 665.492 115.398Q672.062 112.073 678.712 108.911Q685.362 105.748 692.087 102.75Q698.813 99.7513 705.61 96.9189Q712.406 94.0866 719.271 91.422Q726.135 88.7574 733.063 86.2621Q739.991 83.7669 746.977 81.4425Q753.964 79.1181 761.006 76.9659Q768.048 74.8138 775.14 72.8352Q782.233 70.8566 789.372 69.0527Q796.511 67.2488 803.692 65.6208Q810.873 63.9927 818.092 62.5415Q825.31 61.0903 832.563 59.8167Q839.815 58.5432 847.096 57.4481Q854.378 56.353 861.684 55.437Q868.99 54.521 876.316 53.7847Q883.642 53.0484 890.984 52.4921Q898.326 51.9359 905.68 51.5602Q913.034 51.1844 920.394 50.9893Q927.755 50.7942 935.118 50.7798Q942.481 50.7655 949.842 50.932Q957.204 51.0984 964.559 51.4456Q971.914 51.7928 979.258 52.3204Q986.602 52.8481 993.931 53.5559Q1001.26 54.2637 1008.57 55.1513Q1015.88 56.0388 1023.16 57.1056Q1030.45 58.1723 1037.71 59.4177Q1044.96 60.663 1052.19 62.0861Q1059.41 63.5093 1066.6 65.1094Q1073.79 66.7094 1080.93 68.4855Q1088.08 70.2616 1095.18 72.2126Q1102.28 74.1267 1109.33 76.2163Q1116.39 78.3059 1123.38 80.5698Q1130.38 82.8337 1137.32 85.2705Q1144.26 87.7072 1151.14 90.3154Q1158.02 92.9236 1164.83 95.7015Q1171.64 98.4794 1178.38 101.425Q1185.12 104.371 1191.78 107.484Q1198.44 110.596 1205.03 113.873Q1211.62 117.149 1218.12 120.588Q1224.62 124.027 1231.03 127.626Q1237.45 131.226 1243.77 134.983Q1250.1 138.74 1256.32 142.653Q1262.55 146.566 1268.68 150.632Q1274.81 154.698 1280.84 158.915Q1286.86 163.132 1292.78 167.497Q1298.71 171.862 1304.52 176.373Q1310.33 180.883 1316.02 185.537Q1321.72 190.19 1327.3 194.983Q1332.88 199.776 1338.34 204.707Q1343.8 209.637 1349.13 214.701Q1354.47 219.765 1359.67 224.96Q1364.88 230.154 1369.96 235.477Q1375.04 240.799 1379.98 246.246Q1384.93 251.693 1389.73 257.26Q1394.54 262.828 1399.21 268.513Q1403.88 274.198 1408.4 279.998Q1412.93 285.797 1417.31 291.706Q1421.69 297.616 1425.92 303.633Q1430.15 309.649 1434.24 315.769Q1438.32 321.889 1442.25 328.108Q1446.18 334.327 1449.95 340.641Q1453.72 346.956 1457.34 353.362Q1466.26 368.912 1474.43 384.868C1479.97 395.927 1513.33 466.712 1511.36 473.83C1512.9 475.581 1514.39 477.283 1515.67 479.242C1520.64 475.403 1524.33 463.452 1526.94 457.571C1546.55 413.343 1560.84 368.175 1571.47 321.039C1574.81 306.263 1578.39 291.185 1580.3 276.146C1580.75 272.615 1580.65 270.547 1579.23 267.283C1585.57 275.929 1589.67 312.616 1592.74 325.587C1603.2 369.684 1616.99 414.675 1635.65 456.044C1642.13 470.414 1648.76 484.651 1656.84 498.202C1659.28 502.299 1667.66 512.665 1667.27 517.132C1666.53 516.526 1614.86 485.136 1614.09 484.862C1615.44 486.17 1616.55 487.588 1617.31 489.326C1621.3 498.523 1624.01 508.725 1627.25 518.226Q1634.98 540.625 1643.98 562.547C1655.97 591.507 1669.41 620.296 1684.98 647.505Q1696.14 666.831 1708.43 685.461C1712.19 691.135 1717.66 697.19 1720.61 703.221C1721.06 704.14 1721.1 704.932 1721.18 705.917C1721.2 706.16 1721.24 706.4 1721.26 706.643C1721.27 706.789 1721.27 706.936 1721.28 707.083C1708.69 701.162 1695.08 697.31 1682.18 692.063C1670.38 687.257 1658.22 680.194 1646.02 676.805C1653.19 682.772 1663.51 704.919 1669.07 713.897C1673.84 721.594 1679.06 729.066 1684.34 736.422C1700.27 758.612 1718.62 779.731 1737.52 799.415C1743.56 805.707 1770.37 829.094 1771.26 835.303C1771.29 835.482 1771.33 835.659 1771.36 835.838C1751.69 832.063 1621.92 807.355 1612.12 809.693C1612.25 809.867 1612.38 810.043 1612.52 810.214C1619.53 818.854 1630.68 824.531 1638.44 832.779C1660.74 856.499 1678.85 886.605 1693.07 915.694C1694.79 919.207 1699.25 926.729 1698.9 930.593C1698.87 930.908 1698.81 931.221 1698.77 931.535C1703.22 931.662 1712.51 930.929 1715.93 933.295L1715.64 934.923C1713.62 936.08 1711.58 935.952 1709.31 936.003C1687.94 936.485 1666.29 935.495 1644.89 935.455Q1572.59 935.789 1500.3 935.364L1123.04 935.353C1064.09 935.411 1005.02 934.313 946.096 935.181L945.575 931.579C945.834 925.69 945.588 919.679 945.586 913.777C948.369 910.962 950.852 907.931 952.89 904.531C971.149 874.066 969.452 836.403 961.013 803.212L958.455 796.049Q957.816 794.021 957.036 792.042C951.548 778.105 941.128 758.412 926.715 752.256L925.613 751.712C923.841 745.878 913.199 741.762 908.168 738.984C901.191 734.586 887.263 735.097 878.998 734.615L859.799 734.429C852.019 734.736 841.44 734.116 834.323 737.246C829.96 739.904 825.772 742.494 821.874 745.83C814.764 747.841 809.435 753.239 804.397 758.39L799.917 764.239C778.161 801.787 774.652 856.961 785.685 898.366C788.681 909.611 792.892 921.625 798.402 931.886L797.882 934.572C792.699 937.151 710.918 934.849 698.024 935.36L261.927 935.378L150.218 935.346C132.07 935.412 113.664 936.294 95.5538 935.753C92.8893 935.674 90.1549 935.5 88.0543 933.812C88.1615 933.666 88.2487 933.504 88.3759 933.376C91.5476 930.18 100.945 931.293 105.256 931.335C116.413 928.711 134.04 930.467 145.855 930.547C149.672 921.228 152.171 911.383 155.609 901.922C158.518 893.92 163.262 885.387 165.033 877.126C166.226 871.563 165.311 864.694 165.714 858.939C160.326 849.487 152.729 840.407 146.131 831.74C113.927 837.261 81.9958 844.366 49.7167 849.488C80.6774 819.591 110.469 785.906 131.236 748.069C114.345 755.246 96.9261 761.426 79.7804 767.974C108.333 723.6 133.089 680.127 148.117 629.168Q131.171 639.232 114.599 649.901C136.837 616.419 152.209 570.635 161.905 531.651C165.381 517.675 167.337 503.046 171.571 489.327C178.56 539.268 196.176 602.086 223.572 644.609L327.567 533.457C335.295 525.141 353.567 508.43 358.379 500.696Z"/>
	<path fill="#FC455B" transform="scale(0.5625 0.5625)" d="M1463.12 821.777L1468.16 821.223C1472.73 822.927 1473.84 826.264 1475.82 830.375C1473.26 829.339 1470.09 828.986 1467.36 828.443C1463.76 826.291 1456.12 825.228 1451.88 824.117C1455.73 823.581 1459.37 822.813 1463.12 821.777Z"/>
	<path fill="#FFFEFE" transform="scale(0.5625 0.5625)" d="M1133.64 850.19C1134.91 849.933 1136.2 849.795 1137.48 849.618L1138.5 850.563C1139.61 865.247 1138.83 880.428 1138.8 895.19C1138.78 905.389 1139.55 916.227 1138.53 926.353C1138.38 927.839 1137.84 929.02 1136.99 930.241L1135.77 930.21C1131.38 924.109 1138.62 862.319 1133.64 850.19Z"/>
	<path fill="#FFFEFE" transform="scale(0.5625 0.5625)" d="M212.337 750.596Q228.278 757.526 244.418 763.981L253.374 767.349C248.164 774.159 242.046 781.428 235.857 787.366C234.099 785.194 232.521 782.87 230.9 780.594C224.091 771.235 216.636 761.423 212.337 750.596Z"/>
	<path fill="#FEE5A3" transform="scale(0.5625 0.5625)" d="M165.714 858.939C166.899 867.133 166.286 876.125 166.287 884.412L166.282 931.36C145.968 931.404 125.558 931.881 105.256 931.335C116.413 928.711 134.04 930.467 145.855 930.547C149.672 921.228 152.171 911.383 155.609 901.922C158.518 893.92 163.262 885.387 165.033 877.126C166.226 871.563 165.311 864.694 165.714 858.939Z"/>
	<path fill="#FEE5A3" transform="scale(0.5625 0.5625)" d="M1405.41 730.107C1421.07 732.52 1436.15 740.425 1451.53 744.469L1451.94 743.081L1450.04 740.594C1455.49 740.181 1461.85 743.654 1467.09 745.184L1466.93 747.03C1461.27 755.471 1447.76 774.659 1439.14 779.508C1439.1 779.233 1439.08 778.956 1439.03 778.681C1438.37 774.728 1429.8 765.917 1427.15 762.163C1421.34 753.928 1412.61 735.259 1405.41 730.107Z"/>
	<path fill="#FFFEFE" transform="scale(0.5625 0.5625)" d="M1410.67 364.887C1414.47 364.493 1419.4 366.373 1422.69 368.242C1426.32 370.309 1429.67 373.318 1432.54 376.334C1438.99 383.112 1466.82 416.551 1468.74 423.29C1466.15 420.697 1460.22 419.547 1456.71 418.867C1446.63 417.133 1437.18 422.973 1427.78 425.679C1426.78 422.526 1423.4 419.727 1421.5 416.977C1414.23 406.432 1427.93 399.041 1429.13 389.366C1430.25 380.411 1415.69 371.758 1410.67 364.887Z"/>
	<path fill="#FFFEFE" transform="scale(0.5625 0.5625)" d="M1251.84 375.554C1252.86 375.891 1253.72 376.353 1254.52 377.061C1262.47 384.029 1269.45 394.824 1276.09 403.069C1284.59 413.612 1294.76 424.413 1301.99 435.842C1302.87 437.233 1303.17 438.398 1303.21 440.047C1301.11 436.811 1296.66 435.305 1293.25 433.912C1291.05 431.874 1288.47 430.384 1285.85 428.939C1276.23 423.618 1267.25 425.718 1257.32 428.616C1260.08 417.882 1247.64 410.342 1243.29 402.064C1238.1 392.215 1249.26 384.92 1251.67 376.215C1251.73 375.996 1251.78 375.775 1251.84 375.554Z"/>
	<path fill="#FFFEFE" transform="scale(0.5625 0.5625)" d="M473.669 391.333C484.612 390.052 494.524 393.799 504.866 396.815C497.425 402.192 494.464 406.071 491.965 414.986C494.216 424.222 498.394 432.777 502.222 441.439C498.875 439.839 495.356 438.38 491.831 437.226C468.225 429.499 446.018 447.408 425.847 457.704C414.347 463.608 403.292 469.485 390.688 472.716C406.691 455.733 457.232 400.227 473.669 391.333Z"/>
	<path fill="#FFFEFE" transform="scale(0.5625 0.5625)" d="M1036.59 318.656C1042.94 318.486 1049.16 318.837 1054.87 321.847C1061.34 325.253 1120.71 399.887 1123.08 407.206C1120.29 405.599 1116.42 404.784 1113.36 403.414C1107.8 400.924 1102.56 397.893 1097.16 395.085C1093.5 390.97 1084.79 387.675 1079.57 385.831C1061.83 379.567 1054.7 387.667 1039.99 394.619C1039.86 394.68 1039.73 394.738 1039.6 394.797C1038.84 392.002 1037.98 389.245 1037.19 386.46C1033.74 374.273 1041.93 366.664 1047.34 356.756C1049.61 352.594 1051.43 347.544 1049.82 342.832C1046.65 333.553 1032.08 326.676 1023.75 322.433C1028.02 320.825 1032.12 319.557 1036.59 318.656Z"/>
	<path fill="#FEE5A3" transform="scale(0.5625 0.5625)" d="M491.042 667.429C512.108 663.192 536.196 662.782 557.656 663.34C553.663 684.801 548.441 707.305 537.744 726.537C535.563 730.459 527.89 741.148 529.04 744.778C535.09 743.575 542.085 738.527 547.515 735.472C544.145 745.077 539.606 754.292 535.366 763.537C530.972 756.466 527.552 748.513 523.846 741.053C511.965 717.137 500.764 692.307 491.042 667.429Z"/>
	<path fill="#FFFEFE" transform="scale(0.5625 0.5625)" d="M599.621 357.118C601.183 357.355 602.761 358.453 603.974 359.427C618.217 370.858 631.534 384.108 645.32 396.153C665.24 413.557 685.74 430.242 705.281 448.086C694.378 447.95 684.553 445.795 674.452 441.803C665.864 437.566 657.594 432.684 649.001 428.45C637.72 422.89 620.518 418.006 608.636 424.335C603.448 427.099 599.068 431.101 593.439 433.023L592.43 431.779C592.067 424.712 596.143 416.851 597.261 409.758C598.931 399.167 589.705 393.485 584.287 385.77C582.271 382.898 581.211 379.986 581.944 376.462C583.789 367.599 592.449 361.632 599.621 357.118Z"/>
	<path fill="#FEE5A3" transform="scale(0.5625 0.5625)" d="M485.795 825.463C496.283 826.815 511.151 826.746 520.575 831.307C513.988 840.188 507.221 848.662 499.598 856.69C493.508 863.104 486.17 869.411 480.968 876.508C501.132 872.506 521.063 867.471 541.206 863.383C547.409 869.412 553.841 875.564 559.254 882.325L559.543 931.389L463.468 931.489Q463.025 890.968 463.282 850.446C470.504 841.913 478.277 833.738 485.795 825.463Z"/>
	<path fill="#FEE5A3" transform="scale(0.5625 0.5625)" d="M1585.75 845.073C1592.79 840.332 1606.18 817.618 1612.12 809.693C1612.25 809.867 1612.38 810.043 1612.52 810.214C1619.53 818.854 1630.68 824.531 1638.44 832.779C1660.74 856.499 1678.85 886.605 1693.07 915.694C1694.79 919.207 1699.25 926.729 1698.9 930.593C1698.87 930.908 1698.81 931.221 1698.77 931.535C1686.44 932.577 1673.3 931.698 1660.89 931.689L1585.8 931.613C1586 931.197 1586.23 930.787 1586.4 930.356C1588.41 925.406 1587.91 850.098 1585.75 845.073Z"/>
	<path fill="#FC455B" transform="scale(0.5625 0.5625)" d="M561.195 662.944C563.072 664.944 569.673 694.225 571.455 699.494C575.918 712.684 581.415 725.247 588.588 737.185C584.518 734.78 574.911 727.777 570.385 728.332L569.883 730.137C574.497 750.658 599.202 794.439 610.819 813.202Q595.175 806.799 579.414 800.691C590.945 826.545 610.423 849.291 630.246 869.136C613.013 866.246 595.447 863.486 578.541 859.065C573.413 865.877 567.467 871.937 561.588 878.092C554.761 872.79 548.814 865.157 542.864 858.848Q517.433 864.729 491.914 870.215C512.928 849.16 529.167 827.114 543.793 801.195C533.87 804.793 523.825 808.202 514.275 812.724C521.826 798.885 552.102 742.221 554.556 729.66L553.422 728.188C547.41 730.426 541.357 734.709 535.764 737.933C549.192 713.882 557.138 690.192 561.195 662.944Z"/>
	<path fill="#FEE5A3" transform="scale(0.5625 0.5625)" d="M961.013 803.212C987.525 800.804 1013.08 800.031 1039.58 803.573C1048.85 804.812 1063.89 809.998 1072.09 809.741C1074.66 813.348 1078.68 823.843 1078.55 828.17L1083.8 830.352C1086.54 829.75 1088.45 828.132 1090.66 826.498L1091.32 827.665C1093.82 835.804 1091.35 846.625 1092.04 855.233C1092.78 864.532 1094.86 874.056 1096.44 883.257C1097.77 891.065 1106.17 927.374 1104.41 931.508L945.575 931.579C945.834 925.69 945.588 919.679 945.586 913.777C948.369 910.962 950.852 907.931 952.89 904.531C971.149 874.066 969.452 836.403 961.013 803.212Z"/>
	<path fill="#FFFEFE" transform="scale(0.5625 0.5625)" d="M1077.31 846.65C1078.69 846.702 1079.48 847.102 1080.71 847.685C1080.96 848.646 1081.11 849.56 1081.01 850.56C1080.76 852.926 1079.24 855.541 1077.35 856.907L1076.08 857.626C1074.83 855.589 1076.94 849.434 1077.31 846.65Z"/>
	<path fill="#FFFEFE" transform="scale(0.5625 0.5625)" d="M1083.8 830.352C1084.23 833.927 1083.87 838.038 1082.52 841.388L1079.63 841.448L1079.96 842.491C1077.71 837.485 1078.1 833.538 1078.55 828.17L1083.8 830.352Z"/>
	<path fill="#FEE5A3" transform="scale(0.5625 0.5625)" d="M1539.74 809.331C1542.6 808.977 1545.33 808.809 1548.22 808.843C1551.88 811.706 1573.04 841.217 1573.51 844.411C1573.91 845.079 1574.29 845.796 1574.49 846.556C1576 852.417 1575.42 918.877 1574.64 927.623C1574.5 929.163 1574.01 930.403 1573.2 931.72L1362.08 931.591C1362.51 930.832 1362.96 929.984 1363.16 929.13C1364.33 924.166 1364.63 902.523 1361.98 898.227C1362.39 897.58 1362.72 896.944 1363 896.228C1364.64 892.023 1364.56 846.18 1362.89 842.123C1367.31 839.281 1371.73 831.24 1375.34 827.013C1378.83 822.934 1384.18 819.351 1387.08 815.207C1392.65 816.171 1397.96 817.716 1403.38 819.321C1403.33 819.613 1403.26 820.146 1403.14 820.452C1401.13 825.291 1384.56 839.987 1379.59 842.417C1391.74 840.663 1433.35 830.652 1444.07 826.183L1484.22 836.152C1484.24 835.533 1484.3 835.167 1484.18 834.581C1483.35 830.411 1475.91 822.545 1472.44 820.047C1481.83 818.853 1491.19 816.549 1500.56 815.091C1513.59 813.064 1526.8 811.87 1539.74 809.331Z"/>
	<path fill="#FEE5A3" transform="scale(0.5625 0.5625)" d="M1269.66 744.173C1276.87 742.214 1312.14 732.142 1316.25 729.097C1317.15 737.811 1289.8 772.79 1282.73 781.517C1273.56 792.836 1244.73 828.423 1233.91 833.749C1266.31 828.025 1298.08 819.617 1330.61 814.223C1341.12 817.866 1350.75 829.668 1355.53 839.545C1356.58 841.721 1357.4 844.028 1357.64 846.446C1358.36 853.795 1358.7 926.11 1357.22 930.077C1356.98 930.742 1356.81 930.929 1356.42 931.575L1164.8 931.53C1170.6 923.034 1178.12 867.873 1178.76 855.971C1179.26 846.691 1179.16 836.901 1177.41 827.745C1177.22 826.763 1176.95 825.903 1176.58 824.975C1178.79 826.027 1180.61 827.122 1181.64 829.472C1181.75 829.725 1181.82 829.996 1181.91 830.258C1184.02 830.315 1186.09 829.965 1187.87 831.144L1191.08 829.846C1193.89 826.76 1195.18 822.683 1196.25 818.716C1199.88 805.189 1203.85 764.098 1197.03 752.064C1221.82 746.7 1247.4 740.137 1272.58 737.253C1272.81 739.523 1271.43 742.172 1269.96 743.906C1269.87 744.008 1269.76 744.084 1269.66 744.173Z"/>
	<path fill="#FFFEFE" transform="scale(0.5625 0.5625)" d="M1181.91 830.258C1184.02 830.315 1186.09 829.965 1187.87 831.144C1188.05 831.619 1188.15 831.81 1188.27 832.276C1189.51 837.32 1187.71 841.394 1185.14 845.603C1185.18 845.277 1185.23 844.951 1185.26 844.624C1185.7 840.488 1184.55 833.539 1181.91 830.258Z"/>
	<path fill="#FC455B" transform="scale(0.5625 0.5625)" d="M1360.63 498.217L1362.45 499.415C1365.03 507.441 1366.9 515.685 1369.4 523.743C1376.41 546.353 1384.52 568.105 1394.79 589.457C1397.68 595.484 1409.2 614.321 1408.5 619.653C1406.78 616.87 1378.96 599.401 1375.47 598.221C1375.59 598.365 1375.71 598.506 1375.83 598.654C1376.02 598.898 1376.2 599.152 1376.4 599.397C1382.22 606.784 1387.11 624.691 1390.95 634.031C1400.37 656.97 1410.15 681.777 1422.89 703.023C1426.68 709.346 1443.28 733.118 1443.07 738.749C1438.5 734.372 1407.34 725.931 1399.57 723.709C1403.02 726.952 1418.74 757.066 1423.91 764.626C1427.04 769.199 1435.95 777.698 1436.87 782.752C1435.7 787.628 1410.14 813.165 1405.3 816.219C1400.76 813.286 1391.84 812.251 1386.52 810.962C1386.45 811.151 1386.4 811.35 1386.3 811.528C1385.34 813.317 1382.55 814.993 1380.96 816.279C1369.72 825.396 1367.52 834.594 1359.59 841.401C1359.73 840.501 1359.69 839.867 1359.37 839.005C1356.29 830.705 1346.69 818.428 1338.81 814.669C1337.46 812.382 1334.35 811.269 1332.05 810.221C1302.8 814.969 1274.2 822.177 1245.1 827.569C1254.21 822.614 1275.68 795.918 1283.31 786.483C1291.13 776.835 1324.37 733.112 1323.35 723.481C1312.79 728.197 1287.26 735.719 1275.73 737.932C1279.95 734.732 1282.39 730.316 1285.21 725.91C1296.78 707.783 1347.99 613.291 1344.88 599.191C1344.77 599.406 1344.67 599.624 1344.55 599.834C1341.53 605.2 1318.61 617.312 1312.39 619.26C1312.92 618.835 1313.44 618.411 1313.95 617.959C1328.74 604.726 1359.38 519.128 1360.63 498.217Z"/>
	<path fill="#FEE5A3" transform="scale(0.5625 0.5625)" d="M566.157 663.325C636.948 665.785 700.596 686.103 757.883 728.507Q768.764 736.683 778.971 745.688C785.301 751.328 792.401 760.599 799.917 764.239C778.161 801.787 774.652 856.961 785.685 898.366C788.681 909.611 792.892 921.625 798.402 931.886C771.608 930.461 744.187 931.486 717.329 931.466L563.382 931.427L563.336 881.843L580.689 863.936C600.689 867.419 620.414 872.302 640.614 874.571C634.243 866.634 626.232 859.587 619.296 852.073C607.087 838.847 596.9 824.115 587.97 808.527C598.828 812.811 609.651 817.252 620.677 821.087C616.351 813.163 610.831 805.669 606.206 797.872Q601.645 790.303 597.452 782.523Q593.259 774.744 589.444 766.772Q585.629 758.801 582.201 750.656Q578.772 742.51 575.738 734.21Q587.011 740.515 598.146 747.06C594.318 738.313 588.686 730.153 584.517 721.5C575.517 702.827 570.457 683.482 566.157 663.325Z"/>
	<path fill="#4C4D60" transform="scale(0.5625 0.5625)" d="M358.379 500.696Q360.771 491.566 363.264 482.462C403.369 336.712 508.361 203.803 639.55 129.337Q645.949 125.694 652.436 122.208Q658.922 118.723 665.492 115.398Q672.062 112.073 678.712 108.911Q685.362 105.748 692.087 102.75Q698.813 99.7513 705.61 96.9189Q712.406 94.0866 719.271 91.422Q726.135 88.7574 733.063 86.2621Q739.991 83.7669 746.977 81.4425Q753.964 79.1181 761.006 76.9659Q768.048 74.8138 775.14 72.8352Q782.233 70.8566 789.372 69.0527Q796.511 67.2488 803.692 65.6208Q810.873 63.9927 818.092 62.5415Q825.31 61.0903 832.563 59.8167Q839.815 58.5432 847.096 57.4481Q854.378 56.353 861.684 55.437Q868.99 54.521 876.316 53.7847Q883.642 53.0484 890.984 52.4921Q898.326 51.9359 905.68 51.5602Q913.034 51.1844 920.394 50.9893Q927.755 50.7942 935.118 50.7798Q942.481 50.7655 949.842 50.932Q957.204 51.0984 964.559 51.4456Q971.914 51.7928 979.258 52.3204Q986.602 52.8481 993.931 53.5559Q1001.26 54.2637 1008.57 55.1513Q1015.88 56.0388 1023.16 57.1056Q1030.45 58.1723 1037.71 59.4177Q1044.96 60.663 1052.19 62.0861Q1059.41 63.5093 1066.6 65.1094Q1073.79 66.7094 1080.93 68.4855Q1088.08 70.2616 1095.18 72.2126Q1102.28 74.1267 1109.33 76.2163Q1116.39 78.3059 1123.38 80.5698Q1130.38 82.8337 1137.32 85.2705Q1144.26 87.7072 1151.14 90.3154Q1158.02 92.9236 1164.83 95.7015Q1171.64 98.4794 1178.38 101.425Q1185.12 104.371 1191.78 107.484Q1198.44 110.596 1205.03 113.873Q1211.62 117.149 1218.12 120.588Q1224.62 124.027 1231.03 127.626Q1237.45 131.226 1243.77 134.983Q1250.1 138.74 1256.32 142.653Q1262.55 146.566 1268.68 150.632Q1274.81 154.698 1280.84 158.915Q1286.86 163.132 1292.78 167.497Q1298.71 171.862 1304.52 176.373Q1310.33 180.883 1316.02 185.537Q1321.72 190.19 1327.3 194.983Q1332.88 199.776 1338.34 204.707Q1343.8 209.637 1349.13 214.701Q1354.47 219.765 1359.67 224.96Q1364.88 230.154 1369.96 235.477Q1375.04 240.799 1379.98 246.246Q1384.93 251.693 1389.73 257.26Q1394.54 262.828 1399.21 268.513Q1403.88 274.198 1408.4 279.998Q1412.93 285.797 1417.31 291.706Q1421.69 297.616 1425.92 303.633Q1430.15 309.649 1434.24 315.769Q1438.32 321.889 1442.25 328.108Q1446.18 334.327 1449.95 340.641Q1453.72 346.956 1457.34 353.362Q1466.26 368.912 1474.43 384.868C1479.97 395.927 1513.33 466.712 1511.36 473.83C1509.49 468.855 1503.18 462.256 1499.94 457.837C1481.04 431.99 1461.48 406.902 1441.7 381.724C1429.89 366.693 1421.75 361.62 1402.46 359.348C1395.2 358.493 1386.75 357.962 1380.08 361.493C1372.65 365.427 1333.9 414.498 1325.19 424.783C1320.78 429.988 1316.12 436.61 1310.73 440.745C1310.56 440.88 1310.38 441.007 1310.2 441.138C1310.13 440.56 1310.15 440.409 1309.85 439.812C1307.3 434.709 1257.58 374.628 1252.24 369.691C1249.04 366.724 1246.34 365.314 1242.19 364.004C1236.18 364.903 1231.06 365.865 1225.73 368.998C1211 377.669 1182.04 413.301 1169.36 427.376C1165.1 432.112 1160.38 438.667 1155.12 442.173C1154.57 438.383 1069.71 330.816 1061.82 323.018C1056.15 317.412 1048.97 314.965 1041.05 315.102Q1039.38 315.145 1037.72 315.32Q1036.07 315.495 1034.43 315.801Q1032.79 316.106 1031.18 316.539Q1029.57 316.973 1027.99 317.532Q1026.42 318.092 1024.9 318.773Q1023.38 319.455 1021.92 320.255Q1020.45 321.054 1019.06 321.967Q1017.66 322.879 1016.34 323.899C1004.43 333.024 995.68 346.817 986.632 358.655L957.922 395.543C949.146 406.983 940.403 419.259 930.396 429.663L929.812 430.265L922.577 439.879C908.016 423.77 892.392 408.557 877.292 392.949C858.27 373.288 839.515 353.197 820.023 334.012C812.648 326.753 806.846 323.039 796.124 323.251C791.268 323.347 785.403 324.156 781.264 326.897C770.919 333.751 755.89 352.493 746.852 362.216Q716.884 394.564 686.592 426.609C667.015 411.282 648.415 394.355 629.808 377.856C620.992 370.038 612.23 361.155 602.636 354.366C600.135 352.596 597.248 351.522 594.381 350.497C591.261 349.637 587.997 349.399 584.792 349.032C553.046 350.566 540.585 378.169 515.962 392.839C512.338 393.008 508.365 393.372 504.773 392.833C495.152 391.392 484.757 385.77 474.942 388.007C454.192 392.737 381.597 480.561 358.379 500.696Z"/>
	<path fill="#FFFEFE" transform="scale(0.5625 0.5625)" d="M584.792 349.032C583.768 343.035 584.464 335.659 584.926 329.584Q585.141 326.643 585.452 323.711Q585.762 320.779 586.168 317.859Q586.574 314.939 587.075 312.033Q587.576 309.128 588.172 306.24Q588.767 303.352 589.457 300.486Q590.146 297.619 590.928 294.776Q591.711 291.934 592.586 289.118Q593.46 286.302 594.426 283.517Q595.392 280.731 596.448 277.979Q597.505 275.226 598.65 272.509Q599.796 269.793 601.029 267.115Q602.262 264.437 603.582 261.801Q604.902 259.164 606.308 256.572Q607.713 253.981 609.202 251.436Q610.691 248.891 612.262 246.397Q613.833 243.902 615.485 241.46Q616.773 239.546 618.107 237.664Q619.442 235.783 620.823 233.935Q622.204 232.087 623.631 230.275Q625.058 228.462 626.529 226.685Q628.001 224.909 629.516 223.169Q631.031 221.43 632.589 219.728Q634.146 218.027 635.746 216.365Q637.346 214.703 638.987 213.081Q640.627 211.46 642.307 209.879Q643.988 208.299 645.707 206.761Q647.426 205.223 649.183 203.728Q650.94 202.234 652.734 200.783Q654.527 199.333 656.357 197.927Q658.186 196.522 660.049 195.162Q661.913 193.803 663.809 192.49Q665.706 191.177 667.635 189.912Q669.564 188.647 671.523 187.431Q673.483 186.214 675.472 185.046Q677.462 183.879 679.48 182.761Q681.497 181.644 683.542 180.576Q685.587 179.509 687.658 178.494Q689.729 177.478 691.824 176.514Q693.92 175.55 696.039 174.638Q698.158 173.727 700.298 172.868Q702.439 172.01 704.601 171.205Q706.762 170.4 708.943 169.649Q711.124 168.898 713.323 168.201Q715.522 167.505 717.738 166.863Q719.953 166.222 722.184 165.636Q724.415 165.05 726.66 164.519Q728.904 163.989 731.161 163.514Q733.419 163.04 735.687 162.622Q737.831 162.222 739.984 161.875Q742.137 161.528 744.298 161.232Q746.459 160.937 748.627 160.695Q750.794 160.452 752.967 160.262Q755.14 160.072 757.316 159.934Q759.493 159.797 761.672 159.712Q763.852 159.628 766.033 159.596Q768.213 159.564 770.394 159.586Q772.575 159.607 774.755 159.681Q776.935 159.755 779.112 159.882Q781.289 160.008 783.463 160.188Q785.636 160.367 787.805 160.6Q789.974 160.832 792.136 161.116Q794.298 161.401 796.453 161.738Q798.608 162.075 800.754 162.464Q802.9 162.853 805.036 163.294Q807.172 163.735 809.297 164.228Q811.421 164.721 813.533 165.265Q815.646 165.809 817.744 166.404Q819.842 166.999 821.925 167.645Q824.009 168.29 826.076 168.986Q828.143 169.682 830.192 170.428Q832.242 171.174 834.273 171.97Q836.304 172.765 838.315 173.609Q840.326 174.454 842.316 175.347Q844.305 176.239 846.273 177.18Q848.241 178.121 850.185 179.109Q852.13 180.098 854.05 181.133Q855.97 182.168 857.864 183.249Q859.758 184.33 861.625 185.457Q863.493 186.584 865.333 187.756Q867.172 188.928 868.983 190.144C868.785 190.128 868.587 190.119 868.39 190.098C862.052 189.425 835.405 176.957 825.148 173.927C772.34 158.331 710.069 171.426 666.836 205.071C628.09 235.225 602.107 277.76 596.125 326.808C595.175 334.601 594.52 342.654 594.381 350.497C591.261 349.637 587.997 349.399 584.792 349.032Z"/>
	<path transform="scale(0.5625 0.5625)" d="M1188.71 163.108C1200.2 161.873 1215.57 161.88 1226.56 165.862C1228.94 166.724 1231.48 168.195 1232.42 170.68C1233.12 172.527 1232.81 174.43 1231.82 176.073C1225.37 186.715 1174.27 193.226 1160.83 196.315C1160.34 200.196 1159.57 203.306 1157.13 206.448C1148.05 218.126 1130.28 211.226 1118.14 209.839C1104.06 208.231 1033.97 228.476 1012.16 231.056C1004.02 232.019 994.371 228.181 985.958 227.565C978.099 226.991 970.488 227.784 962.671 227.71C959.635 227.681 958.613 227.506 956.518 225.324L956.6 223.413C960.508 218.602 972.203 217.102 978.194 215.61L980.633 214.86L981.117 213.663C978.034 205.288 971.849 198.336 968.398 190.128C967.491 187.971 967.431 187.036 968.335 184.922C974.672 181.982 1017.68 198.164 1028.9 200.53C1031.85 201.152 1034.58 201.178 1037.56 200.761C1042.18 200.117 1071.18 193.432 1074.43 191.359C1068.24 185.985 1053.82 180.858 1045.97 176.984C1042.49 175.264 1036.78 173.179 1035.49 169.362L1037.04 167.78C1040.51 166.629 1044.02 166.736 1047.62 167.01C1056.87 167.711 1065.64 170.069 1074.77 171.39C1089.86 173.573 1106.55 174.515 1121.22 178.692C1142.49 171.144 1166.5 167.098 1188.71 163.108Z"/>
	<path fill="#FC455B" transform="scale(0.5625 0.5625)" d="M1123.19 193.324C1123.82 193.257 1124.22 193.187 1124.83 193.208C1126.73 193.273 1128.63 194.14 1129.86 195.577C1130.82 196.701 1130.56 197.02 1130.47 198.493C1128.47 200.188 1127.37 200.021 1124.84 200.261C1122.98 200.261 1121.7 200.351 1120.11 199.32C1121.23 197.857 1122.78 196.189 1123.08 194.316C1123.13 193.987 1123.15 193.655 1123.19 193.324Z"/>
	<path fill="#FFFEFE" transform="scale(0.5625 0.5625)" d="M1009.16 212.686C1010.48 212.455 1011.91 212.527 1013.26 212.495L1013.73 213.416C1004.42 220.711 985.095 223.086 973.636 223.725L966.583 223.753C966.689 223.59 966.772 223.41 966.901 223.264C971.077 218.557 1002.2 214.027 1009.16 212.686Z"/>
	<path fill="#FFFEFE" transform="scale(0.5625 0.5625)" d="M1192.13 166.665C1196.08 166.348 1199.66 166.306 1203.59 166.808C1199.61 170.058 1191.28 168.03 1186.77 171.538L1187.18 172.731C1196.9 176.342 1212.21 164.634 1223.66 169.491C1225.97 170.469 1226.3 171.037 1227.25 173.195L1226.23 175.64C1217.14 184.129 1193.75 185.974 1181.37 188.026C1174.46 190.032 1167.27 190.912 1160.18 191.998C1160.17 190.363 1159.37 188.073 1158.41 186.705C1154.47 181.086 1133.2 181.983 1124.97 180.53Q1158.49 173.29 1192.13 166.665Z"/>
	<path fill="#FC455B" transform="scale(0.5625 0.5625)" d="M1041.53 171.075L1042.03 170.995C1042.96 170.84 1043.89 170.692 1044.83 170.652C1052.15 170.337 1060.85 172.625 1068.15 173.785C1090.62 177.356 1112.93 181.993 1135.34 185.592C1140.1 186.357 1148.71 185.827 1152.88 187.614C1152.98 187.655 1153.87 188.496 1153.88 188.507C1155.83 190.423 1156.36 192.83 1156.3 195.479C1156.21 199.342 1154.73 203.761 1151.72 206.316C1145.15 211.905 1129.48 207.295 1121.32 206.709C1122.92 205.347 1127.54 205.159 1129.76 204.468C1132.8 203.525 1134.3 202.423 1135.78 199.652C1135.74 198.434 1135.61 197.209 1135.08 196.094C1133.51 192.802 1130.18 188.592 1126.75 187.255C1120.5 187.377 1119.77 195.662 1114.55 198.25C1112.93 199.049 1110.78 198.87 1109.04 198.704C1097.7 197.628 1101.21 191.49 1096.9 188.261C1096.39 187.878 1095.7 187.818 1095.1 187.597C1093.42 187.99 1092.58 188.434 1091.4 189.727C1090.63 190.56 1090.03 191.234 1089.05 191.817C1088.77 191.982 1088.49 192.137 1088.21 192.297C1084.73 191.073 1078.25 189.548 1076.01 186.553C1074.43 184.447 1075.24 182.611 1075.64 180.252C1074.35 178.213 1073.79 178.044 1071.57 176.982C1068.2 177.646 1068.3 179.377 1065.68 180.76C1063.26 182.037 1045.07 172.55 1041.53 171.075Z"/>
	<path fill="#FFFEFE" transform="scale(0.5625 0.5625)" d="M971.84 187.957C983.705 191.186 1022.92 200.562 1031.09 205.781C1041.79 203.882 1076.59 193.177 1084.52 195.214C1088.58 196.257 1087.38 199.067 1089.19 201.723C1091.17 204.634 1095.26 199.597 1098.03 199.565C1103.52 199.5 1112.34 202.382 1118.27 203.198C1110.12 208.064 1095.47 209.343 1086.14 210.948C1081.16 213.533 1015.65 227.501 1008.74 227.81C1004.68 227.991 999.268 225.898 995.305 224.847C1001.56 222.892 1012.9 220.705 1017.32 215.514C1018.84 213.737 1018.82 212.794 1018.55 210.673C1018.28 210.474 1018.03 210.262 1017.75 210.078C1012.15 206.323 992.091 212.006 985.279 213.33C980.307 205.182 976.175 196.458 971.84 187.957Z"/>
	<path fill="#FEE5A3" transform="scale(0.5625 0.5625)" d="M594.381 350.497C594.52 342.654 595.175 334.601 596.125 326.808C602.107 277.76 628.09 235.225 666.836 205.071C710.069 171.426 772.34 158.331 825.148 173.927C835.405 176.957 862.052 189.425 868.39 190.098C868.587 190.119 868.785 190.128 868.983 190.144C907.954 214.043 935.569 258.875 945.993 302.652C957.178 349.617 949.742 387.339 929.812 430.265L922.577 439.879C908.016 423.77 892.392 408.557 877.292 392.949C858.27 373.288 839.515 353.197 820.023 334.012C812.648 326.753 806.846 323.039 796.124 323.251C791.268 323.347 785.403 324.156 781.264 326.897C770.919 333.751 755.89 352.493 746.852 362.216Q716.884 394.564 686.592 426.609C667.015 411.282 648.415 394.355 629.808 377.856C620.992 370.038 612.23 361.155 602.636 354.366C600.135 352.596 597.248 351.522 594.381 350.497Z"/>
	<path fill="#FFFEFE" transform="scale(0.5625 0.5625)" d="M897.622 477.115C914.404 453.331 934.423 431.129 952.416 408.181L987.33 363.538C994.998 353.55 1002.3 343.04 1010.67 333.643C1014.19 329.689 1017.37 327.115 1022.16 324.806C1029.21 328.565 1037.12 332.742 1042.84 338.397C1054.66 350.092 1035.18 364.601 1032.99 377.104C1031.76 384.15 1036.35 390.066 1036.37 396.701L1034.39 398.007C1034.38 398.148 1034.37 398.29 1034.35 398.43C1033.57 405.5 1026.88 411.118 1032.51 418.342C1038.46 425.972 1056.85 424.97 1055.82 437.507C1055.31 443.802 1051.47 449.335 1046.66 453.207C1033.44 463.861 1015.41 470.492 1013.18 489.784C1012.74 493.669 1013.65 497.181 1016.14 500.213C1023.46 509.116 1029.72 510.043 1028.6 523.367C1028.34 526.501 1027.02 531.842 1028.09 534.707C1030.48 533.171 1031.83 529.144 1032.42 526.366C1033.62 520.654 1032.61 515.085 1029.4 510.193C1024.17 502.226 1015.28 496.135 1017.37 485.342C1020.9 467.114 1071.09 451.384 1057.27 430.903C1051.99 423.075 1032.6 420.098 1034.04 409.456C1034.9 403.149 1041.62 397.885 1046.48 394.528C1053.56 389.638 1063.63 385.657 1072.33 387.442C1085.66 390.179 1096.79 399.204 1108.74 405.145C1114.74 408.124 1120.9 409.742 1127.12 412.089C1133.91 416.332 1150.52 440.611 1156.22 447.943C1177.29 475.066 1199.02 501.709 1219.97 528.92C1233.88 546.984 1246.88 565.971 1261.34 583.579C1262.88 585.447 1265.29 588.75 1267.8 588.587C1267.64 582.086 1188.17 483.271 1178.16 470.54C1173.97 465.203 1161.04 450.819 1159.29 446.259C1158.42 444.009 1160.22 441.852 1161.28 440.016C1165.75 436.764 1169.75 431.397 1173.51 427.309C1186 413.719 1213.36 380.868 1226.59 372.198C1229.74 370.134 1233.68 368.899 1237.39 368.382C1240.9 367.893 1244.23 367.877 1247.2 370.071C1251.83 378.999 1239.27 386.153 1238.3 395.016C1237.36 403.565 1244.68 408.952 1249.49 414.95C1251.39 417.32 1252.43 419.094 1252.11 422.099C1254.62 424.885 1255.11 427.691 1254.93 431.366C1254.29 444.533 1224.77 459.202 1236.31 471.973C1242.4 478.709 1261.78 478.556 1261.61 489.323C1261.55 493.078 1259.27 498.216 1256.48 500.723C1249.87 506.666 1239.39 504.772 1238.02 516.642C1237.54 520.732 1239.03 526.801 1241.8 529.916C1243.28 531.585 1246.69 534.263 1248.97 534.585C1249.34 534.637 1249.84 534.556 1250.19 534.521C1246.89 527.215 1238.3 524.684 1241.89 514.633C1243.05 511.383 1245.65 508.875 1248.81 507.553C1256.85 504.188 1260.63 503.595 1264.54 494.731C1265.63 492.248 1266.1 489.54 1265.15 486.93C1263.38 482.026 1258.05 478.499 1253.46 476.576C1248.16 474.355 1240.49 473.008 1237.9 467.385C1236.93 465.274 1236.96 463.054 1237.85 460.92C1242.34 450.153 1258.94 446.726 1257.53 432.516C1260.16 431.604 1262.81 430.738 1265.36 429.589C1274.95 428.103 1282.49 429.562 1290.49 435.423C1291.3 436.021 1292.08 436.71 1292.69 437.517C1296.6 438.97 1304.11 441.43 1307.11 444.216C1311.39 447.867 1335.71 484.564 1336.96 489.108C1338.41 482.215 1334.52 477.742 1330.85 472.104C1326.56 465.503 1318.2 450.574 1312.22 446.364C1312.42 445.471 1312.55 444.789 1313.05 444.006C1317.99 436.367 1326.04 429.012 1331.98 422.008L1364.14 383.976C1369.25 377.944 1374.61 370.177 1380.7 365.241C1386.51 360.528 1398 362.431 1404.98 363.138C1407.81 364.896 1409.49 368.924 1411.66 371.504C1414.94 375.392 1419.18 378.356 1422.38 382.428C1423.61 383.996 1424.78 385.823 1425.31 387.761C1426.8 393.183 1421.05 396.758 1418.66 401.096C1410.66 415.63 1422.45 418.739 1425.39 428.352C1428.81 429.581 1432.31 432.462 1433.9 435.8C1435.57 439.308 1434.86 442.915 1433.47 446.342C1430.97 452.531 1424.9 457.791 1423.12 464.007C1420.62 472.755 1428.39 481.219 1425.64 490.284C1421.33 504.496 1401.27 513.946 1408.37 531.636C1411.05 538.327 1417.87 542.758 1423.73 546.397L1425.81 546.124L1425.89 544.722C1420.17 538.975 1410.07 531.191 1410.43 522.326C1410.88 511.124 1424.9 502.544 1428.86 491.936C1432.24 482.867 1425.65 476.727 1426.39 467.937C1427.6 453.736 1447.33 446.945 1433.42 430.449C1433.13 430.109 1432.84 429.776 1432.54 429.443L1433.88 429.705L1432.15 428.8C1439.37 423.945 1449.71 420.463 1458.38 422.253C1464.23 423.461 1469.65 426.627 1474.09 430.556C1482.72 438.207 1505.56 470.295 1512.49 481.226C1512.97 481.977 1513.11 482.584 1513.17 483.462C1513.57 489.576 1499.09 510.506 1495.05 515.234C1494.03 516.426 1492.83 517.453 1491.6 518.418C1501.28 515.617 1539.42 492.789 1543.85 484.932C1543.92 484.811 1543.98 484.685 1544.04 484.561C1544.54 492.673 1539.31 503.582 1536.55 511.292C1518.22 562.49 1494.51 611.906 1468.55 659.631C1460.95 673.601 1453.12 689.718 1442.87 701.852C1441.68 703.261 1440.17 704.358 1438.61 705.324C1450.97 703.268 1502.47 683.688 1511.51 675.993C1512.66 682.286 1489.48 715.709 1484.59 722.79C1481.73 726.916 1477.65 734.54 1473.35 736.83C1472.95 739.509 1471.33 742.136 1469.15 743.781C1468.48 744.287 1467.8 744.742 1467.09 745.184C1461.85 743.654 1455.49 740.181 1450.04 740.594C1449.2 736.943 1445.63 732.685 1443.01 730.027C1442.74 725.812 1424.91 698.802 1421.36 692.343C1411.98 675.257 1404.25 656.559 1396.8 638.555C1393.22 629.905 1389.16 615.185 1383.73 608.077C1387.35 609.452 1414.58 624.988 1417.93 627.455C1417.95 626.362 1417.95 625.227 1417.54 624.197C1415.14 618.171 1410.82 612.02 1407.66 606.309Q1399.18 591.117 1392.07 575.241C1383.17 555.306 1375.31 533.241 1369.72 512.135C1367.06 502.052 1366.33 490.478 1362.43 480.902L1361.32 480.446C1358.59 484.958 1354.97 508.369 1353.24 515.005C1347.23 538.063 1321.45 613.404 1304.39 625.694C1304.18 625.84 1303.98 625.981 1303.77 626.124Q1305.61 625.69 1307.43 625.206C1315.19 623.106 1333.44 615.625 1337.47 608.596C1337.87 610.379 1337.81 611.884 1337.31 613.626C1333.08 628.299 1288.01 723.242 1277.94 728.946C1277.81 731.704 1276.56 733.95 1274.51 735.763C1273.9 736.302 1273.24 736.781 1272.58 737.253C1247.4 740.137 1221.82 746.7 1197.03 752.064C1203.85 764.098 1199.88 805.189 1196.25 818.716C1195.18 822.683 1193.89 826.76 1191.08 829.846L1187.87 831.144C1186.09 829.965 1184.02 830.315 1181.91 830.258C1181.82 829.996 1181.75 829.725 1181.64 829.472C1180.61 827.122 1178.79 826.027 1176.58 824.975C1176.68 824.536 1176.82 823.928 1176.88 823.457C1177.22 820.64 1176.1 819.597 1174.4 817.597C1174.24 817.687 1174.08 817.785 1173.92 817.865C1149.23 829.882 1119.28 824.276 1094.63 815.886C1093.53 819.59 1093.97 824.28 1091.57 827.332C1091.48 827.441 1091.4 827.554 1091.32 827.665L1090.66 826.498C1088.45 828.132 1086.54 829.75 1083.8 830.352L1078.55 828.17C1078.68 823.843 1074.66 813.348 1072.09 809.741C1063.89 809.998 1048.85 804.812 1039.58 803.573C1013.08 800.031 987.525 800.804 961.013 803.212L958.455 796.049Q957.816 794.021 957.036 792.042C951.548 778.105 941.128 758.412 926.715 752.256L925.613 751.712C923.841 745.878 913.199 741.762 908.168 738.984C901.191 734.586 887.263 735.097 878.998 734.615L859.799 734.429C852.019 734.736 841.44 734.116 834.323 737.246C829.96 739.904 825.772 742.494 821.874 745.83C814.764 747.841 809.435 753.239 804.397 758.39L799.917 764.239C792.401 760.599 785.301 751.328 778.971 745.688Q768.764 736.683 757.883 728.507C700.596 686.103 636.948 665.785 566.157 663.325L564.565 654.94C563.802 649.693 563.005 644.587 561.6 639.462C560.226 645.244 559.344 650.88 558.704 656.786L557.656 663.34C536.196 662.782 512.108 663.192 491.042 667.429C500.764 692.307 511.965 717.137 523.846 741.053C527.552 748.513 530.972 756.466 535.366 763.537L533.073 767.996Q527.446 780.161 521.143 791.99C515.826 801.384 509.425 810.749 504.828 820.453C514.866 816.206 524.961 811.985 535.26 808.411C530.997 815.759 526.458 825.253 520.575 831.307C511.151 826.746 496.283 826.815 485.795 825.463C478.277 833.738 470.504 841.913 463.282 850.446Q463.025 890.969 463.468 931.489L453.913 931.496C418.567 931 383.172 931.483 347.822 931.497L175.078 931.438L175.179 857.695C180.531 848.841 185.893 840.043 191.703 831.477C204.928 832.958 218.411 836.234 231.507 838.704C253.011 842.76 274.792 846.533 296.041 851.769C272.813 831.069 254.475 812.405 235.857 787.366C242.046 781.428 248.164 774.159 253.374 767.349C254.798 768.032 255.597 768.021 257.13 767.975C257.416 765.703 256.444 764.539 255.442 762.568L251.256 755.238Q231.376 722.006 214.764 687.025Q201.414 658.146 190.676 628.198C202.254 634.205 213.105 642.251 224.006 649.45C242.767 627.049 263.945 606.644 283.774 585.192Q317.478 548.397 351.995 512.363C362.876 500.906 374.245 486.256 387.278 477.468C392.976 473.626 402.157 473.494 408.622 470.529C425.541 462.77 441.757 452.913 458.2 444.181C470.288 437.762 478.85 436.838 491.938 440.836C498.132 442.58 503.404 446.411 508.64 449.998Q506.796 449.643 504.937 449.37C496.815 448.175 489.13 448.769 482.387 453.965C479.223 456.403 476.114 460.14 475.766 464.278C474.546 478.806 495.841 475.409 502.924 479.948C505.656 481.698 508.215 486.189 510.203 488.798L511.326 488.851L511.732 487.096C506.456 470.037 489.089 479.757 480.749 468.282C479.658 466.78 479.09 464.917 479.405 463.066C479.976 459.712 482.95 456.603 485.665 454.711C496.041 447.485 503.118 454.576 513.224 456.525C514.202 452.414 503.828 436.957 501.538 432.159C498.995 426.355 494.937 419.071 496.154 412.591C496.861 408.821 499.272 405.635 502.12 403.182C508.587 397.611 517.91 395.957 524.863 390.827C536.595 382.172 546.127 370.619 557.965 362.072C567.32 355.319 578.749 350.739 590.47 352.957C592.457 353.332 594.05 353.618 595.208 355.335C589.165 359.863 582.112 364.788 579.525 372.211C577.806 377.144 577.982 381.927 580.362 386.577L580.76 387.341C586.592 393.184 594.093 399.169 593.99 408.204C593.873 418.419 583.883 429.909 592.76 439.338C598.873 445.832 617.561 448.243 617.738 458.201C617.875 465.877 610.949 472.067 605.855 476.958C598.744 483.784 586.432 492.486 586.269 503.335C586.063 517.067 603.844 526.684 600.647 540.788C597.536 554.51 569.055 573.221 584.635 587.99C585.198 588.524 585.776 588.998 586.396 589.462L587.525 589.204C585.161 580.932 581.993 576.68 586.755 568.22C592.93 557.25 601.544 551.061 604.793 538.18C603.75 534.013 602.652 530.002 600.695 526.152C595.78 516.482 585.812 507.14 592.391 495.887C599.096 484.42 625.033 470.793 620.803 455.743C619.342 450.542 614.466 447.534 609.945 445.25C605.958 443.235 601.005 441.538 597.955 438.199C597.594 436.484 597.307 436.055 598.432 434.535C602.303 429.306 613.104 426.016 619.311 425.427C642.358 423.237 660.868 441.351 681.645 448.037C690.577 450.912 699.861 451.624 709.193 451.372C714.504 455.753 727.099 469.49 732.61 470.586L733.618 470.174C732.275 464.785 703.592 442.161 697.546 436.223L689.713 428.848C708.852 407.136 729.121 386.106 748.959 365.034C758.733 354.652 767.922 343.275 778.315 333.537C786.302 326.052 793.299 326.727 803.628 327.07C799.359 354.009 812.174 346.873 817.698 360.612C821.464 369.98 814.629 379.706 810.841 387.876C811.35 392.755 812.937 395.047 816.686 398.107C823.102 403.344 829.006 406.545 829.859 415.653C830.696 424.595 822.291 430.802 821.76 439.381C821.749 439.561 821.741 439.742 821.737 439.923C821.506 449.984 832.318 453.04 833.423 462.056C834.744 472.83 821.758 479.53 826.044 491.049C826.753 492.955 828.004 495.038 829.454 496.471C830.1 497.109 830.888 497.589 831.68 498.018L832.411 497.446C829.909 488.719 826.879 485.782 831.909 476.813C834.952 471.389 838.669 466.936 836.879 460.347C834.948 453.237 826.844 449.696 825.848 442.303C823.852 427.487 839.954 423.829 829.813 404.66C825.748 400.774 814.959 393.977 814.99 388.244C815.055 376.46 833.27 371.239 815.308 352.158C810.382 346.925 805.306 340.829 805.928 333.02C805.997 332.15 806.292 331.47 806.631 330.679C807.953 330.078 808.193 329.71 809.574 330.203C815.995 332.497 902.992 423.669 915.399 437.113C917.134 438.879 918.943 440.603 920.482 442.545L799.187 596.148C790.565 606.959 753.022 651.107 749.289 659.265L749.781 660.29C753.829 659.855 758.341 652.788 760.796 649.744Q809.305 589.162 857.201 528.094L884.612 493.029C888.506 488.059 892.877 481.106 897.622 477.115Z"/>
	<path transform="scale(0.5625 0.5625)" d="M860.244 726.558C859.401 725.811 858.528 725.053 857.776 724.211C851.474 717.15 842.502 708.481 843.287 698.281C843.942 689.773 851.691 682.38 859.409 679.61C863.652 678.088 869.354 677.371 873.098 674.846C877.073 672.166 879.659 667.163 883.462 664.116C884.728 663.101 886.086 662.708 887.657 662.957C891.051 663.496 893.851 666.235 895.722 668.99C902.791 679.394 892.102 685.469 890.532 694.948C890.493 695.183 890.465 695.42 890.432 695.656C887.423 697.221 885.348 698.065 884.217 701.489C882.617 706.33 884.107 713.703 884.415 718.847C883.025 720.945 881.535 722.826 881.177 725.374C875.416 728.334 870.435 730.066 864.033 727.988Q862.101 727.372 860.244 726.558Z"/>
	<path transform="scale(0.5625 0.5625)" d="M1104.71 697.343C1112.04 685.488 1108.67 657.311 1122.99 645.183Q1123.41 644.825 1123.86 644.489Q1124.3 644.153 1124.76 643.84Q1125.21 643.526 1125.69 643.236Q1126.16 642.946 1126.65 642.679Q1127.13 642.413 1127.63 642.171Q1128.13 641.929 1128.64 641.713Q1129.15 641.497 1129.68 641.306Q1130.2 641.115 1130.73 640.951Q1131.26 640.786 1131.79 640.649Q1132.33 640.511 1132.88 640.4Q1133.42 640.29 1133.97 640.206Q1134.52 640.123 1135.07 640.067Q1135.62 640.011 1136.18 639.982Q1136.73 639.954 1137.28 639.954Q1137.84 639.953 1138.39 639.98Q1138.95 640.007 1139.5 640.062Q1140.04 640.11 1140.58 640.185Q1141.11 640.259 1141.64 640.36Q1142.18 640.462 1142.7 640.589Q1143.23 640.717 1143.75 640.871Q1144.27 641.025 1144.78 641.204Q1145.29 641.383 1145.79 641.588Q1146.29 641.793 1146.78 642.022Q1147.27 642.251 1147.75 642.505Q1148.23 642.758 1148.69 643.036Q1149.16 643.313 1149.61 643.613Q1150.06 643.912 1150.49 644.234Q1150.93 644.556 1151.35 644.9Q1151.77 645.243 1152.17 645.607Q1152.57 645.97 1152.95 646.354Q1153.33 646.737 1153.69 647.139Q1154.06 647.541 1154.4 647.96C1161.32 656.493 1166.48 686.865 1165.3 697.398C1165.62 697.535 1165.95 697.675 1166.27 697.826C1168.84 699.042 1171.05 700.507 1172 703.181C1176.64 703.962 1179.53 708.406 1182.09 712.004C1186.72 718.514 1197.09 737.335 1195.99 745.161C1195.96 745.36 1195.89 745.552 1195.84 745.747C1196.78 747.999 1197.65 749.581 1197.03 752.064C1203.85 764.098 1199.88 805.189 1196.25 818.716C1195.18 822.683 1193.89 826.76 1191.08 829.846L1187.87 831.144C1186.09 829.965 1184.02 830.315 1181.91 830.258C1181.82 829.996 1181.75 829.725 1181.64 829.472C1180.61 827.122 1178.79 826.027 1176.58 824.975C1176.68 824.536 1176.82 823.928 1176.88 823.457C1177.22 820.64 1176.1 819.597 1174.4 817.597C1174.24 817.687 1174.08 817.785 1173.92 817.865C1149.23 829.882 1119.28 824.276 1094.63 815.886C1093.53 819.59 1093.97 824.28 1091.57 827.332C1091.48 827.441 1091.4 827.554 1091.32 827.665L1090.66 826.498C1088.45 828.132 1086.54 829.75 1083.8 830.352L1078.55 828.17C1078.68 823.843 1074.66 813.348 1072.09 809.741C1072.27 809.14 1072.43 808.535 1072.51 807.912C1072.85 805.119 1071.5 802.889 1069.79 800.843C1071.88 796.405 1069.5 789.601 1069.09 784.777C1066.99 759.941 1072.25 729.402 1088.91 709.96C1090.77 707.792 1093.76 704.092 1096.72 703.876C1099.05 701.367 1102.25 699.793 1104.71 697.343Z"/>
	<path fill="#FC455B" transform="scale(0.5625 0.5625)" d="M1167.47 730.211L1168.8 731.189C1171.87 740.461 1170.22 763.6 1167.13 772.992C1165.35 778.385 1162.86 782.686 1157.7 785.337C1159.04 772.842 1158.52 756.957 1157.2 744.441C1158.48 743.691 1159.78 742.912 1160.92 741.956C1164.29 739.128 1167.07 734.634 1167.47 730.211Z"/>
	<path fill="#FC455B" transform="scale(0.5625 0.5625)" d="M1098.76 731.988L1100.16 732.441C1102.39 735.684 1104.66 739.293 1107.74 741.776C1108.51 742.394 1109.18 743.055 1109.88 743.744C1111.29 750.533 1111.91 779.57 1109.94 785.763L1107.58 786.504C1105.16 782.991 1101.56 780.564 1099.38 776.834C1091.99 764.177 1099.02 746.45 1098.78 732.717L1098.76 731.988Z"/>
	<path fill="#FC455B" transform="scale(0.5625 0.5625)" d="M1130.65 696.443L1152.89 696.178C1153.26 696.791 1153.18 696.617 1153.52 697.425C1155.65 702.401 1155.2 735.432 1153.04 740.477C1141.29 740.556 1142.64 735.537 1134.16 734.084C1134.05 734.054 1133.95 734.012 1133.84 733.993C1127.8 732.948 1126.95 736.761 1122.83 739.576C1121.27 740.648 1119.66 740.682 1117.82 740.094C1108.18 737.019 1117.44 705.444 1112.17 697.047L1130.65 696.443Z"/>
	<path fill="#FC455B" transform="scale(0.5625 0.5625)" d="M1113.27 744.438C1125.8 742.736 1140.13 744.104 1152.82 744.189C1152.94 744.425 1153.06 744.658 1153.17 744.896C1154.91 748.68 1154.71 783.099 1153.04 787.61C1152.76 788.365 1150.92 788.935 1150.16 789.298C1149.89 789.512 1149.65 789.758 1149.36 789.939C1139.77 795.987 1123.36 792.234 1113.14 789.538C1115.51 782.376 1115.49 751.716 1113.27 744.438Z"/>
	<path fill="#FC455B" transform="scale(0.5625 0.5625)" d="M1104.71 697.343C1112.04 685.488 1108.67 657.311 1122.99 645.183Q1123.41 644.825 1123.86 644.489Q1124.3 644.153 1124.76 643.84Q1125.21 643.526 1125.69 643.236Q1126.16 642.946 1126.65 642.679Q1127.13 642.413 1127.63 642.171Q1128.13 641.929 1128.64 641.713Q1129.15 641.497 1129.68 641.306Q1130.2 641.115 1130.73 640.951Q1131.26 640.786 1131.79 640.649Q1132.33 640.511 1132.88 640.4Q1133.42 640.29 1133.97 640.206Q1134.52 640.123 1135.07 640.067Q1135.62 640.011 1136.18 639.982Q1136.73 639.954 1137.28 639.954Q1137.84 639.953 1138.39 639.98Q1138.95 640.007 1139.5 640.062Q1140.04 640.11 1140.58 640.185Q1141.11 640.259 1141.64 640.36Q1142.18 640.462 1142.7 640.589Q1143.23 640.717 1143.75 640.871Q1144.27 641.025 1144.78 641.204Q1145.29 641.383 1145.79 641.588Q1146.29 641.793 1146.78 642.022Q1147.27 642.251 1147.75 642.505Q1148.23 642.758 1148.69 643.036Q1149.16 643.313 1149.61 643.613Q1150.06 643.912 1150.49 644.234Q1150.93 644.556 1151.35 644.9Q1151.77 645.243 1152.17 645.607Q1152.57 645.97 1152.95 646.354Q1153.33 646.737 1153.69 647.139Q1154.06 647.541 1154.4 647.96C1161.32 656.493 1166.48 686.865 1165.3 697.398C1165.62 697.535 1165.95 697.675 1166.27 697.826C1168.84 699.042 1171.05 700.507 1172 703.181C1171.95 705.067 1171.64 706.042 1170.59 707.606C1170.13 707.848 1169.54 707.937 1169.2 708.332C1167.08 710.794 1168.73 730.248 1156.31 741.382C1157.78 738.5 1158 735.819 1158.11 732.631C1158.3 727.407 1158.91 695.958 1156.8 693.689C1144.84 690.563 1122.13 692.926 1109.35 694.087C1110.74 696.768 1110.77 733.945 1109.89 738.215C1108.31 738.12 1107.42 737.776 1106.29 736.563C1100.4 730.238 1100.97 715.032 1101.53 707.044L1097.3 706.662L1096.72 703.876C1099.05 701.367 1102.25 699.793 1104.71 697.343Z"/>
	<path fill="#76D3E7" transform="scale(0.5625 0.5625)" d="M1172 703.181C1176.64 703.962 1179.53 708.406 1182.09 712.004C1186.72 718.514 1197.09 737.335 1195.99 745.161C1195.96 745.36 1195.89 745.552 1195.84 745.747C1196.78 747.999 1197.65 749.581 1197.03 752.064C1203.85 764.098 1199.88 805.189 1196.25 818.716C1195.18 822.683 1193.89 826.76 1191.08 829.846L1187.87 831.144C1186.09 829.965 1184.02 830.315 1181.91 830.258C1181.82 829.996 1181.75 829.725 1181.64 829.472C1180.61 827.122 1178.79 826.027 1176.58 824.975C1176.68 824.536 1176.82 823.928 1176.88 823.457C1177.22 820.64 1176.1 819.597 1174.4 817.597C1174.24 817.687 1174.08 817.785 1173.92 817.865C1149.23 829.882 1119.28 824.276 1094.63 815.886C1093.53 819.59 1093.97 824.28 1091.57 827.332C1091.48 827.441 1091.4 827.554 1091.32 827.665L1090.66 826.498C1088.45 828.132 1086.54 829.75 1083.8 830.352L1078.55 828.17C1078.68 823.843 1074.66 813.348 1072.09 809.741C1072.27 809.14 1072.43 808.535 1072.51 807.912C1072.85 805.119 1071.5 802.889 1069.79 800.843C1071.88 796.405 1069.5 789.601 1069.09 784.777C1066.99 759.941 1072.25 729.402 1088.91 709.96C1090.77 707.792 1093.76 704.092 1096.72 703.876L1097.3 706.662C1100.88 716.45 1093.01 747.929 1092.86 760.794C1092.79 767.131 1096.75 774.475 1096.4 779.683C1101.52 783.773 1105.33 788.554 1111.2 791.886C1121.84 797.929 1136.73 797.54 1148.15 794.166C1156.07 791.829 1164.64 786.929 1168.6 779.376C1170.65 775.452 1172.75 768.891 1171.37 764.55C1171.82 763.541 1172.21 762.592 1172.4 761.494C1173.48 755.311 1173.07 717.275 1172 710.704C1171.81 709.548 1171.25 708.558 1170.59 707.606C1171.64 706.042 1171.95 705.067 1172 703.181Z"/>
	<path fill="#FC455B" transform="scale(0.5625 0.5625)" d="M403.821 652.394C421.366 621.464 433.303 587.64 442.673 553.409C444.848 545.464 452.916 506.553 455.593 503.251C459.355 507.445 471.444 562.538 474.759 573.47C483.176 601.225 494.003 627.617 509.065 652.462C497.508 647.016 485.256 639.351 475.112 631.564C478.431 641.039 483.294 650.235 487.509 659.353L491.042 667.429C500.764 692.307 511.965 717.137 523.846 741.053C527.552 748.513 530.972 756.466 535.366 763.537L533.073 767.996Q527.446 780.161 521.143 791.99C515.826 801.384 509.425 810.749 504.828 820.453C514.866 816.206 524.961 811.985 535.26 808.411C530.997 815.759 526.458 825.253 520.575 831.307C511.151 826.746 496.283 826.815 485.795 825.463C478.277 833.738 470.504 841.913 463.282 850.446Q463.025 890.969 463.468 931.489L453.913 931.496C454.674 922.872 454.13 913.774 454.128 905.09L453.87 851.419C445.666 842.872 438.069 833.706 429.976 825.041C399.738 831.495 370.03 841.69 339.608 847.154C346.062 839.543 354.013 832.852 360.81 825.456C381.902 802.508 405.906 773.154 419.39 745.033Q398.618 753.117 378.046 761.699C392.186 734.25 405.791 706.112 417.6 677.577L421.136 669.804Q429.326 650.185 436.463 630.159C425.225 636.978 415.257 645.723 403.821 652.394Z"/>
	<path fill="#FEE5A3" transform="scale(0.5625 0.5625)" d="M490.585 746.029C504.562 753.65 518.462 761.65 533.073 767.996Q527.446 780.161 521.143 791.99C509.048 778.26 499.303 762.072 490.585 746.029Z"/>
	<path fill="#FEE5A3" transform="scale(0.5625 0.5625)" d="M255.442 762.568C267.048 754.735 276.825 743.742 288.24 735.48C328.004 706.701 370.417 689.752 417.6 677.577C405.791 706.112 392.186 734.25 378.046 761.699Q398.618 753.117 419.39 745.033C405.906 773.154 381.902 802.508 360.81 825.456C354.013 832.852 346.062 839.543 339.608 847.154C370.03 841.69 399.738 831.495 429.976 825.041C438.069 833.706 445.666 842.872 453.87 851.419L454.128 905.09C454.13 913.774 454.674 922.872 453.913 931.496C418.567 931 383.172 931.483 347.822 931.497L175.078 931.438L175.179 857.695C180.531 848.841 185.893 840.043 191.703 831.477C204.928 832.958 218.411 836.234 231.507 838.704C253.011 842.76 274.792 846.533 296.041 851.769C272.813 831.069 254.475 812.405 235.857 787.366C242.046 781.428 248.164 774.159 253.374 767.349C254.798 768.032 255.597 768.021 257.13 767.975C257.416 765.703 256.444 764.539 255.442 762.568Z"/>
</svg>
